# xmcd
#
# Track frame offsets:
#	150
#	9021
#	22298
#	34901
#	45880
#	56363
#	65532
#	77018
#	88195
#	101770
#	111789
#	123403
#	134854
#
# Disc length: 1921 seconds
#
# Revision: 0
# Processed by: cddbd v1.5.2PL0 Copyright (c) Steve Scherf et al.
# Submitted via: EasyCDDAExtractor 15.3.0.1
#
DISCID=aa077f0d
DTITLE=Skeeter Davis and Bobby Bare - Tunes For Two
DYEAR=1965
DGENRE=Country
TTITLE0=A Dear John Letter
TTITLE1=Too Used To Being With You
TTITLE2=In The Misty Moonlight
TTITLE3=We'll Sing In The Sunshine
TTITLE4=I Don't Care
TTITLE5=True Love
TTITLE6=I Love You
TTITLE7=Out Of Our Minds
TTITLE8=Let It Be Me
TTITLE9=Together Again
TTITLE10=That's All I Want From You
TTITLE11=Invisible tears
TTITLE12=A Little Bitty Tear
EXTD=
EXTT0=
EXTT1=
EXTT2=
EXTT3=
EXTT4=
EXTT5=
EXTT6=
EXTT7=
EXTT8=
EXTT9=
EXTT10=
EXTT11=
EXTT12=
PLAYORDER=
